<svg xmlns="http://www.w3.org/2000/svg" width="600" height="400" viewBox="0 0 600 400">
  <defs>
    <style> .bg{fill:#e9f4ff} .accent{fill:#2b7cd3} .stroke{fill:none;stroke:#0d47a1;stroke-width:8;stroke-linecap:round;stroke-linejoin:round} </style>
  </defs>
  <rect width="100%" height="100%" rx="24" fill="#e9f4ff"/>
  <!-- stethoscope -->
  <g transform="translate(80,60)">
    <path class="stroke" d="M180 40c0 0 20 70-40 120-60 50-120 30-150-20"/>
    <circle cx="40" cy="180" r="36" fill="#fff" stroke="#2b7cd3" stroke-width="6"/>
    <path class="stroke" d="M40 180c10 10 30 10 50 0 30-15 70-60 80-100"/>
    <rect x="260" y="140" width="220" height="120" rx="12" fill="#fff" stroke="#2b7cd3" stroke-width="6"/>
    <path d="M320 180h100" stroke="#2b7cd3" stroke-width="8" stroke-linecap="round"/>
    <path d="M360 150v40" stroke="#2b7cd3" stroke-width="8" stroke-linecap="round"/>
  </g>
  <!-- heartbeat line -->
  <polyline points="10,300 90,300 120,260 150,340 190,220 230,300 310,300 350,260 380,300 470,300" fill="none" stroke="#e53935" stroke-width="8" stroke-linecap="round" stroke-linejoin="round"/>
  <title>Healthcare: Stethoscope and heartbeat</title>
</svg>